<?xml version="1.0" encoding="UTF-8"?>
<svg id="Layer_2" data-name="Layer 2" xmlns="http://www.w3.org/2000/svg" viewBox="0 0 171.38 37.71">
  <defs>
    <style>
      .cls-1 {
        fill: #f8da01;
      }

      .cls-2 {
        fill: #df0613;
      }

      .cls-3 {
        fill: #e7e7e6;
      }
    </style>
  </defs>
  <g id="Layer_1-2" data-name="Layer 1">
    <path class="cls-2" d="M113.78,23.76l4.32-21-.03-1.28c-.49-.23-1.05-.32-1.56-.49-.37-.13-.69.21-.56-.5l7.2-.36-2.4,11.64c1.43-1.75,2.93-4.25,5.6-4.06,6.76.48,1.22,10.59,1.83,14.38,1.9.81,2.78-2.32,3.49-2.63,1.48-.65-.26,1.88-.49,2.15-1.16,1.4-2.85,2.58-4.78,2.38-5.93-.61.25-10.77-1.33-14.04-2.04-1.44-5.01,5.51-5.42,6.86-.69,2.26-.77,4.83-1.68,6.96h-4.2Z"/>
    <path class="cls-1" d="M67.16,9.42c-.89-.86-2.89.83-2.58-.77,1.37-.13,2.86-.63,4.2-.72,1.03-.07,3.02-.32,3.17,1.11-.22,3.18-3.84,9.24-3,12.16.64,2.21,4.1.06,4.85-1.29.42-.74.51-2.05.85-2.99.59-1.63,1.29-3.23,1.86-4.86s.28-3.64,2.4-4.08c3.75-.78,2.47,2.28,1.81,4.45-.55,1.81-3.33,7.98-1.87,9.42.7.69,2.43.05,3.18-.43,2.65-1.69,5.16-6.35,3.76-9.39-.45-.96-1.83-1.83-1.97-2.84-.25-1.82,2.45-2.67,3.44-.55,1.87,4-.62,10.89-3.96,13.57-2.68,2.15-7.55,3.23-9.25-.6-1.93,2.14-6.13,3.64-8.53,1.56-3.13-2.72.55-8.23,1.43-11.3.17-.6.66-2,.2-2.45Z"/>
    <path class="cls-2" d="M113.7,3.2c2.58,2.76.1,6.78-3.49,5.41.15-1.5.76-5.52-1.34-5.75-4.21-.45-7.04,7.11-7.32,10.46-.57,6.65,3.67,10.24,9.72,6.59l.6.6c-5.13,5.93-14.9,4.25-15.61-4.31-.5-6.03,3.44-12.82,9.56-14.22,2.33-.53,6.12-.68,7.88,1.21Z"/>
    <path class="cls-1" d="M9.62,1.92v.72c-4.44-.21-.37,5.3-.48,7.68l5.42-6.48c.31-.79-.35-1.2-1.09-1.22v-.7s5.75,0,5.75,0v.72c-.72-.06-1.32.23-1.9.62-.93.62-6.86,7.4-7.27,8.33-.5,1.12-1.85,7.85-1.87,9.17-.03,1.46.03,2.15,1.69,2.3v.71s-9.36,0-9.36,0v-.72c1.13-.02,2.06-.65,2.52-1.68.3-.67,1.99-8.15,1.96-8.73-.04-.76-2.31-7.3-2.76-8.24S1.17,2.47.02,2.64c-.1-.22.21-.72.36-.72h9.24Z"/>
    <path class="cls-1" d="M48.83,22.47c-4.59-4.63.9-14.22,7.24-14.79,9.93-.89,8.4,11.86,1.48,15.4-2.51,1.28-6.61,1.52-8.72-.61ZM57.31,9.19c-2.37-1.93-4.49,3.31-4.86,4.96-.45,2.01-1.25,9.52,2.35,8.59,2.13-.55,3.38-5.58,3.54-7.51.12-1.45.16-5.08-1.02-6.04Z"/>
    <path class="cls-1" d="M46.82,0l-4.47,21.04c.03.92.16,1.33,1.18.99.81-.27,2.46-3.17,3.05-2.59-.88,4.57-8.98,7.24-8.64.6l3.85-17.77-.13-.59c-.34-.68-1.4-.46-2.05-.48V.48S46.82,0,46.82,0Z"/>
    <path class="cls-1" d="M18.26,17.76c.28,2.15,1.59,3.95,3.95,3.85,1.22-.06,2.29-.82,3.49-.97-.26,1.79-3.11,3.08-4.74,3.3-9.43,1.28-9.37-10.41-3.35-14.63,2.42-1.7,7.61-2.52,8.76.95,1.55,4.66-4.46,7.07-8.11,7.51ZM18.26,16.8c2.42-.65,4.36-2.58,4.57-5.15.09-1.13.25-2.68-1.31-2.53-2.24.22-3.66,5.78-3.26,7.68Z"/>
    <path class="cls-1" d="M36.98,0l-4.34,21.24.24.73c1.45,1.03,2.68-2.19,3.19-2.48.25-.14,1.06-.24.9.3-.77,2.68-4.83,5.31-7.52,3.69-1.55-.93-1.27-2.82-1.05-4.34.74-5.17,3.01-11.05,3.53-16.15.05-.49.04-1.03-.03-1.52-.27-.43-2.28.1-2.13-.99l7.2-.48Z"/>
    <path class="cls-2" d="M151.94,0l-4.34,21.24.24.73c1.57.95,2.72-2.22,3.19-2.48.24-.14,1.06-.24.9.3-1.23,4.29-9.22,6.59-8.63.25l3.8-17.77c-.07-1.14-.82-.98-1.6-1.25-.39-.14-.64.12-.52-.54L151.94,0Z"/>
    <path class="cls-2" d="M161.78,0l-4.54,21.03c-.07,1.54,1.24,1.25,2.15.46.16-.14,2.06-3.05,2.15-1.93-.99,4.03-7.89,6.99-8.66,1.2l3.87-18.26c.13-1.26-.73-1.22-1.61-1.52-.37-.13-.69.21-.56-.51L161.78,0Z"/>
    <path class="cls-2" d="M169.94,7.92l-2.64,13.56c.67,1.53,1.95.04,2.64-.72.49-.54.67-1.72,1.45-1.19-.32,3.92-8.19,6.78-8.59,1.61-.23-2.98,2.17-7.97,2.13-10.97-.02-1.38-.74-1.39-1.94-1.32v-.72s6.96-.24,6.96-.24Z"/>
    <path class="cls-2" d="M139.29,7.13c.2.25.56.29.94.86,1.39,2.1.85,4.38.36,6.7-.63,3-2.36,8.25-5.68,9.2-2.53.72-.29-1.67.09-2.31,2.11-3.59.96-7.5.85-11.15-.08-2.89,2.63-3.05,2.15-6.45-.22-1.57-.99-1.18-1.9-2.05,3.75-.37,2.31,4.12,3.19,5.21Z"/>
    <path class="cls-3" d="M149.3,36.72c-.78.38-1.84-.43-2.24-.43-.51,0-1,.5-1.93.42-2.62-.24-3.84-3.24-2.31-5.39,2.06-2.9,7.08-.91,6.19,2.83-.11.46-.7.91-.65,1.22.07.4,1.07.73.94,1.35ZM147.38,34.08c.11-1.02.05-2.02-1.02-2.46-2.89-1.18-3.77,3.78-.42,3.66l-.72-1.44,2.16.24Z"/>
    <path class="cls-3" d="M138.02,33.6v-3.6h1.68v6.48l-1.63-.05-2.93-3.55v3.6h-1.68v-6.48c2.24-.41,2.83,2.68,4.56,3.6Z"/>
    <path class="cls-3" d="M61.94,33.6v-3.6h1.68v6.48c-2.28.39-2.99-2.5-4.56-3.6v3.6h-1.68v-6.48c2.28-.42,2.87,2.64,4.56,3.6Z"/>
    <path class="cls-2" d="M168.44.29c4.57-.66,3.36,5.89-.72,5.65-3.44-.21-2.41-5.19.72-5.65Z"/>
    <path class="cls-3" d="M109.94,33.6c.74-.04,1.31-.54,1.81.24.26.49-.42.86-.34,1.28.09.49,1.05.68.92,1.35-.8.37-1.9-.36-2.28-.39-.27-.02-1.02.51-1.5.58-1,.15-2.29-.36-2.6-1.39-.44-1.46,1.1-2.19,1.12-2.33.07-.42-.44-1.05-.21-1.83.56-1.89,4.25-1.39,3.75.85-.12.56-.82.92-.68,1.61ZM108.62,31.2c-.63.17-.34,1.18.48.96.63-.17.34-1.18-.48-.96ZM107.9,33.84c-.64.19-.55,1.8.7,1.42.76-.23.07-1.65-.7-1.42Z"/>
    <path class="cls-3" d="M95.06,30c2.88-.57,6.65,1.4,3.36,3.96l1.68,2.4c-2.08.73-2.23-.63-3.36-1.8v1.92s-1.68,0-1.68,0v-6.48ZM96.74,32.88l1.1-.22.08-.83-.21-.28-.97-.11v1.44Z"/>
    <path class="cls-3" d="M118.34,30.36l.4-.32c.59-.19,3.05.13,3.46.61.77.91.14,1.58.22,2.33.07.56.74.85.71,1.67-.02.6-.72,1.83-1.31,1.83h-3.48v-6.12ZM120.02,32.64c1.63.21,1.66-1.4,0-1.2v1.2ZM121.43,35.02c.24-1.17-.41-1.28-1.42-1.18v1.44s1.42-.26,1.42-.26Z"/>
    <path class="cls-3" d="M.5,30c1.45,0,4.11-.21,4.51,1.61.21.95-.11,2.05-1.15,2.23v.35c.13.35,2.26,2.12,1.08,2.29-1.89.28-1.62-.98-2.76-1.92v1.92s-1.68,0-1.68,0v-6.48ZM2.18,32.88l1.1-.22.08-.83-.21-.28-.97-.11v1.44Z"/>
    <path class="cls-3" d="M35.54,30v4.2c0,1.15,2.16.96,2.16.24v-4.44h1.68v4.92c0,.67-1.59,1.72-2.31,1.79-3.74.35-3.29-3.78-3.18-6.31.2-.6,1.13-.36,1.65-.39Z"/>
    <path class="cls-3" d="M153.14,30v3.96c0,1.55,2.16,1.15,2.16.48v-4.44h1.68v4.92c0,.76-1.72,1.79-2.53,1.81s-2.75-.7-2.75-1.57v-5.16h1.44Z"/>
    <path class="cls-3" d="M80.18,36.48v-6.48c1.4.05,4.03-.16,4.07,1.83.01.57-.42.98-.41,1.18.03.43,1.67,1.17.53,2.75-.86,1.2-2.9.59-4.19.73ZM81.62,32.64c1.63.21,1.66-1.4,0-1.2v1.2ZM83.03,35.02c.24-1.17-.41-1.28-1.42-1.18v1.44s1.42-.26,1.42-.26Z"/>
    <path class="cls-3" d="M42.26,30c1.41.05,4.02-.21,4.3,1.58.2,1.22-.06,1.86-1.18,2.38l1.68,2.4c-2.07.77-2.22-.7-3.24-2.04l-.12,2.16h-1.44v-6.48ZM44.84,32.82c.76-.74-.24-1.62-1.14-1.38v1.68c.35.01.88-.05,1.14-.3Z"/>
    <path class="cls-3" d="M31.94,36.48l-1.65-.03-.3-1.14c-.13-.11-1.87-.08-2.14.09-.59.36-.12,1.61-2.15,1.08l2.44-6.44c.46-.09,1.21-.17,1.52.2.21.25,2.52,6.01,2.28,6.24ZM29.54,34.08l-.6-1.68c-.49.43-.66,1.04-.6,1.68h1.2Z"/>
    <path class="cls-3" d="M52.78,30.04l2.44,6.44c-2.04.53-1.57-.73-2.15-1.08-.27-.17-2.01-.2-2.14-.09l-.3,1.14-1.65.03c-.24-.23,2.06-5.99,2.28-6.24.31-.37,1.07-.29,1.52-.2ZM52.34,32.4c-.52-.54-.72,1.53-.96,1.68h1.2s-.24-1.68-.24-1.68Z"/>
    <path class="cls-3" d="M92.9,36.48c-2.04.53-1.57-.73-2.15-1.08-.27-.17-2.01-.2-2.14-.09l-.3,1.14-1.65.03,2.44-6.44,1.52.2,2.28,6.24ZM90.02,32.4c-.43-.47-.91,1.46-.96,1.68h1.44l-.48-1.68Z"/>
    <path class="cls-3" d="M128.87,30.03l2.43,6.45c-2.04.53-1.57-.73-2.15-1.08-.31-.19-2.02-.24-2.19.02l-.24,1.03-1.65.02,2.44-6.44h1.37ZM128.42,32.64c-.45-.42-1.05,1.36-.96,1.44h1.2c.08-.08-.15-1.35-.24-1.44Z"/>
    <path class="cls-3" d="M7.7,30.36c.16-.51,4.82-1.02,3.84,1.08h-2.16s0,.96,0,.96h1.92s0,1.3,0,1.3l-1.93.14v1.06s2.16.14,2.16.14v1.44h-3.84v-6.12Z"/>
    <path class="cls-3" d="M15.62,32.16c5.36.98,1.73,6.92-1.91,3.45.68-1.84,1.5-.29,2.87-.57.22-1.16-1.11-1.06-1.77-1.47-1.11-.69-1.11-2.17-.26-3.08,1.23-1.31,4.76-.03,2.99,1.08-.52.32-1.89-.77-1.92.58Z"/>
    <path class="cls-3" d="M163.46,30v1.44s-1.92,0-1.92,0v.84c1.3.24,2.16-.23,1.92,1.56h-1.92s0,1.06,0,1.06l1.93.14v1.44h-3.6v-6.48h3.6Z"/>
    <polygon class="cls-3" points="169.7 30 169.7 31.44 168.5 31.44 168.5 36.48 166.82 36.48 166.82 31.44 165.38 31.44 165.74 30 169.7 30"/>
    <polygon class="cls-3" points="70.1 30 70.1 31.44 68.66 31.44 68.66 36.48 67.22 36.48 67.22 31.44 65.78 31.44 65.78 30 70.1 30"/>
    <polygon class="cls-3" points="24.14 30 24.5 31.44 23.06 31.44 23.06 36.48 21.62 36.48 21.62 31.44 20.18 31.44 20.18 30 24.14 30"/>
    <path class="cls-3" d="M73.7,34.8c.15.15-1.1,2.76-1.24,2.84-.25.16-.83,0-1.16.04l.99-2.85,1.41-.03Z"/>
  </g>
</svg>