<?xml version="1.0" encoding="UTF-8"?>
<svg id="Layer_2" data-name="Layer 2" xmlns="http://www.w3.org/2000/svg" viewBox="0 0 621.15 91.75">
  <defs>
    <style>
      .cls-1 {
        fill: #14213d;
        stroke: #14213d;
        stroke-miterlimit: 10;
        stroke-width: 8px;
      }
    </style>
  </defs>
  <g id="Layer_1-2" data-name="Layer 1">
    <g>
      <g>
        <path class="cls-1" d="M4,85.13V31.13h4.44v9.58c.74-1.02,1.53-1.94,2.36-2.78,4.35-4.35,9.58-6.62,15.69-6.8,6.11-.18,11.34,1.9,15.69,6.25,1.85,1.85,3.33,3.93,4.44,6.25,1.11-2.13,2.5-4.03,4.16-5.69,4.35-4.35,9.58-6.62,15.69-6.8,6.11-.18,11.34,1.9,15.69,6.25,4.16,4.07,6.25,9.02,6.25,14.85v32.9h-4.44v-32.9c0-4.53-1.62-8.47-4.86-11.8-3.61-3.42-7.84-5.04-12.7-4.86-4.86.19-9,2.04-12.42,5.55-3.7,3.7-5.55,8.14-5.55,13.33v30.68h-4.44v-30.68c0-3.15-.33-5.76-.97-7.84-.65-2.08-1.94-4.14-3.89-6.18-3.61-3.42-7.84-5.04-12.7-4.86-4.86.19-9,2.04-12.42,5.55-3.7,3.61-5.55,8.05-5.55,13.33v30.68h-4.44Z"/>
        <path class="cls-1" d="M152.26,31.13h4.44v54h-4.44v-17.63c-1.94,5.28-5.23,9.53-9.86,12.77-4.63,3.24-9.77,4.86-15.41,4.86-7.5,0-13.88-2.64-19.16-7.91-5.28-5.28-7.91-11.64-7.91-19.09s2.64-13.81,7.91-19.09c5.28-5.28,11.66-7.91,19.16-7.91,5.64,0,10.78,1.62,15.41,4.86,4.63,3.24,7.91,7.5,9.86,12.77v-17.63ZM110.96,74.1c4.39,4.4,9.72,6.59,15.96,6.59s11.57-2.2,15.96-6.59c4.39-4.39,6.59-9.72,6.59-15.96s-2.2-11.57-6.59-15.96c-4.4-4.39-9.72-6.59-15.96-6.59s-11.57,2.2-15.96,6.59c-4.4,4.4-6.59,9.72-6.59,15.96s2.2,11.57,6.59,15.96Z"/>
        <path class="cls-1" d="M171.69,85.13V4.34h4.44v60.53c7.03-5.37,22.26-16.89,45.67-34.57l2.64,3.47-25.96,19.71,30.82,29.43-3.05,3.19-31.37-29.85-18.74,14.16v14.72h-4.44Z"/>
        <path class="cls-1" d="M261.34,56.12l19.85-10.41c-2.69-4.07-6.29-6.96-10.83-8.68-4.54-1.71-9.12-1.97-13.74-.76-6.02,1.67-10.6,5.21-13.74,10.62-3.15,5.41-3.91,11.13-2.29,17.14,1.62,6.02,5.14,10.57,10.55,13.67,5.41,3.1,11.13,3.82,17.14,2.15,3.33-.83,6.29-2.38,8.88-4.65,2.59-2.27,4.58-5.02,5.97-8.26l4.16,1.8c-1.67,3.8-4.07,7.06-7.22,9.79-3.15,2.73-6.71,4.61-10.69,5.62-7.22,1.94-14.04,1.06-20.48-2.64-6.43-3.7-10.62-9.16-12.56-16.38-1.94-7.22-1.07-14.07,2.64-20.55,3.7-6.48,9.16-10.64,16.38-12.49,6.11-1.67,12.05-1.25,17.84,1.25,5.78,2.5,10.16,6.57,13.12,12.22l.97,1.94-23.88,12.63-2.08-4.03Z"/>
      </g>
      <g>
        <path class="cls-1" d="M325.28,15.78v5.28h-4.44v-5.28h4.44ZM325.28,85.58h-4.44v-46.62h4.44v46.62Z"/>
        <path class="cls-1" d="M347.91,42.82h-12.35v-3.85h12.35V15.76h4.44v23.21h16.14v3.73l-16.14.11v30.18c0,2.49,1.02,4.57,3.05,6.25,1.85,1.6,4.1,2.49,6.73,2.65,2.64.16,4.97-.48,7.01-1.92,1.85-1.28,3.05-2.97,3.61-5.05l4.3.84c-.74,2.97-2.45,5.37-5.14,7.21-2.96,2.01-6.32,2.93-10.06,2.77-3.75-.16-6.96-1.4-9.65-3.73-2.87-2.48-4.3-5.49-4.3-9.02v-30.18Z"/>
      </g>
      <g>
        <path class="cls-1" d="M415.04,84.79h-4.44V4h4.44v80.79Z"/>
        <path class="cls-1" d="M435.44,38.71c5.28-5.28,11.64-7.91,19.09-7.91s13.81,2.64,19.09,7.91c5.28,5.28,7.91,11.64,7.91,19.09s-2.64,13.81-7.91,19.09c-5.28,5.28-11.64,7.91-19.09,7.91s-13.81-2.64-19.09-7.91c-5.28-5.28-7.91-11.64-7.91-19.09s2.64-13.81,7.91-19.09ZM438.57,73.76c4.39,4.4,9.72,6.59,15.96,6.59s11.57-2.2,15.96-6.59c4.39-4.39,6.59-9.72,6.59-15.96s-2.2-11.57-6.59-15.96c-4.4-4.39-9.72-6.59-15.96-6.59s-11.57,2.2-15.96,6.59c-4.4,4.4-6.59,9.72-6.59,15.96s2.2,11.57,6.59,15.96Z"/>
        <path class="cls-1" d="M499.3,38.71c5.28-5.28,11.64-7.91,19.09-7.91s13.81,2.64,19.09,7.91,7.91,11.64,7.91,19.09-2.64,13.81-7.91,19.09c-5.28,5.28-11.64,7.91-19.09,7.91s-13.81-2.64-19.09-7.91c-5.28-5.28-7.91-11.64-7.91-19.09s2.64-13.81,7.91-19.09ZM502.42,73.76c4.39,4.4,9.72,6.59,15.96,6.59s11.57-2.2,15.96-6.59c4.39-4.39,6.59-9.72,6.59-15.96s-2.2-11.57-6.59-15.96c-4.4-4.39-9.72-6.59-15.96-6.59s-11.57,2.2-15.96,6.59c-4.4,4.4-6.59,9.72-6.59,15.96s2.2,11.57,6.59,15.96Z"/>
        <path class="cls-1" d="M557.88,84.79V4h4.44v60.53c7.03-5.37,22.26-16.89,45.67-34.57l2.64,3.47-25.96,19.71,30.82,29.43-3.05,3.19-31.37-29.85-18.74,14.16v14.72h-4.44Z"/>
      </g>
    </g>
  </g>
</svg>